<svg width="80" height="92" viewBox="0 0 80 92" fill="none" xmlns="http://www.w3.org/2000/svg">
<path d="M78.9969 69.5768C79.6175 69.22 80 68.5587 80 67.8429L80 24.1571C80 23.4413 79.6175 22.78 78.9969 22.4232L40.9969 0.57324C40.3797 0.218323 39.6203 0.218323 39.0031 0.57324L1.00306 22.4232C0.382538 22.78 5.05686e-06 23.4413 5.03041e-06 24.157L3.41573e-06 67.8429C3.38928e-06 68.5587 0.382536 69.22 1.00306 69.5768L39.0031 91.4268C39.6203 91.7817 40.3797 91.7817 40.9969 91.4268L78.9969 69.5768Z" fill="black"/>
<rect x="30.5937" y="14" width="5.62183" height="18.2709" rx="2.81091" fill="white"/>
<rect x="39.0264" y="14" width="5.62183" height="18.2709" rx="2.81091" fill="white"/>
<path d="M58.7028 55.4611C58.7028 62.8351 55.1892 64.5966 50.2701 66.002C45.351 67.4075 38.3237 62.8351 38.3237 55.4611C38.3237 48.0871 44.3015 40.0011 51.6755 40.0011C59.0495 40.0011 58.7028 48.0871 58.7028 55.4611Z" fill="#0087A5"/>
<circle cx="50.2701" cy="47.731" r="2.81091" fill="white"/>
<circle cx="36.2155" cy="39.2983" r="2.81091" fill="white"/>
<path d="M40.5444 26.9302C43.538 26.9302 46.3489 27.5205 48.949 28.687C51.5631 29.8676 53.84 31.4558 55.7795 33.4797C57.719 35.5035 59.265 37.8647 60.3894 40.5491C61.5278 43.2476 62.09 46.1288 62.09 49.2067C62.09 52.2847 61.5419 55.1658 60.4456 57.8643C59.3494 60.5628 57.8455 62.9099 55.92 64.9057C53.9946 66.9014 51.7177 68.5036 49.0895 69.6702C46.4613 70.8507 43.6082 71.427 40.5303 71.427H29C26.7909 71.427 25 69.6361 25 67.427V32.5521C25 29.4472 27.517 26.9302 30.6218 26.9302H40.5444ZM39.8135 65.7208C42.0763 65.7208 44.1704 65.2851 46.0678 64.4137C47.9652 63.5424 49.6096 62.3618 50.9869 60.8579C52.3642 59.3541 53.4324 57.5973 54.2054 55.6015C54.9784 53.5917 55.3579 51.4554 55.3579 49.1786C55.3579 46.9018 54.9784 44.7655 54.2054 42.7557C53.4324 40.7459 52.3502 38.989 50.9588 37.4993C49.5674 35.9954 47.9089 34.8148 46.0116 33.9435C44.1142 33.0721 42.0482 32.6364 39.8135 32.6364H31.4932V65.7208H39.8135Z" fill="white"/>
</svg>
