<svg width="80" height="92" viewBox="0 0 80 92" fill="none" xmlns="http://www.w3.org/2000/svg">
<path d="M78.9969 69.5768C79.6175 69.22 80 68.5587 80 67.8429L80 24.1571C80 23.4413 79.6175 22.78 78.9969 22.4232L40.9969 0.57324C40.3797 0.218324 39.6203 0.218324 39.0031 0.57324L1.00306 22.4232C0.382538 22.78 4.89863e-06 23.4413 4.86734e-06 24.1571L2.95777e-06 67.8429C2.92648e-06 68.5587 0.382536 69.22 1.00306 69.5768L39.0031 91.4268C39.6203 91.7817 40.3797 91.7817 40.9969 91.4268L78.9969 69.5768Z" fill="#0CE5DE"/>
<path fill-rule="evenodd" clip-rule="evenodd" d="M80 67.8429C80 68.5587 79.6175 69.22 78.9969 69.5768L41.032 91.4066C43.8801 78.4274 54.7211 66.2778 67.66 66.2778C68.5553 66.2778 69.395 66.336 70.1826 66.4485C69.0293 64.5327 67.6989 62.7655 66.1913 61.1514C63.3403 58.0699 59.942 55.6508 56.0542 53.8653C52.1663 52.0798 47.9329 51.187 43.3539 51.187H26.305V84.1254L13 76.475V51.0142C13 44.6714 18.1263 39.5259 24.4619 39.4949V18.7597C24.4619 15.5787 27.0406 13 30.2216 13C33.4026 13 35.9814 15.5787 35.9814 18.7598V39.4947H41.7411V18.7597C41.7411 15.5787 44.3199 13 47.5009 13C50.6819 13 53.2607 15.5787 53.2607 18.7598V40.2961C56.3134 40.8954 59.2538 41.8297 62.0731 43.0946C67.4297 45.5137 72.0951 48.7679 76.0693 52.915C77.4824 54.3894 78.7934 55.9512 80 57.5992V67.8429ZM35.9814 70.5977C39.1624 70.5977 41.7411 68.019 41.7411 64.8379C41.7411 61.6569 39.1624 59.0782 35.9814 59.0782C32.8004 59.0782 30.2216 61.6569 30.2216 64.8379C30.2216 68.019 32.8004 70.5977 35.9814 70.5977Z" fill="#523B7E"/>
</svg>
