<svg width="80" height="92" viewBox="0 0 80 92" fill="none" xmlns="http://www.w3.org/2000/svg">
<path d="M78.9969 69.5768C79.6175 69.22 80 68.5587 80 67.8429L80 24.1571C80 23.4413 79.6175 22.78 78.9969 22.4232L40.9969 0.57324C40.3797 0.218324 39.6203 0.218324 39.0031 0.57324L1.00306 22.4232C0.38254 22.78 6.60474e-06 23.4413 6.57346e-06 24.1571L4.66389e-06 67.8429C4.6326e-06 68.5587 0.382538 69.22 1.00306 69.5768L39.0031 91.4268C39.6203 91.7817 40.3797 91.7817 40.9969 91.4268L78.9969 69.5768Z" fill="#033FFF"/>
<path fill-rule="evenodd" clip-rule="evenodd" d="M73.9998 73.0251C73.9999 72.9842 74 72.9434 74 72.9025C74 67.8403 73.0754 63.1018 71.2031 58.6637C69.3539 54.2488 66.8113 50.3655 63.6214 47.037C60.4316 43.7085 56.687 41.0965 52.3876 39.1548C50.1247 38.1396 47.7647 37.3897 45.3145 36.9087V19.623C45.3145 17.0698 43.2447 15 40.6915 15C38.1383 15 36.0685 17.0698 36.0685 19.623V36.2655H31.4456V19.623C31.4456 17.0698 29.3758 15 26.8226 15C24.2694 15 22.1996 17.0698 22.1996 19.623V36.4992C16.9495 37.5727 13 42.2176 13 47.785V75.9L23.679 82.0404V45.6501H37.363C41.0383 45.6501 44.4361 46.3667 47.5566 47.7998C50.6771 49.2329 53.4047 51.1745 55.6931 53.6478C56.9031 54.9434 57.9709 56.3618 58.8966 57.8995C58.2644 57.8091 57.5904 57.7625 56.8719 57.7625C44.7442 57.7625 34.9128 71.0611 34.9128 83.1888C34.9128 85.2915 35.2603 87.2557 35.8768 89.0542L40.0031 91.4268C40.6203 91.7817 41.3797 91.7817 41.9969 91.4268L73.9998 73.0251ZM36.0686 56.6068C36.0686 59.16 33.9988 61.2297 31.4456 61.2297C28.8924 61.2297 26.8226 59.16 26.8226 56.6068C26.8226 54.0536 28.8924 51.9838 31.4456 51.9838C33.9988 51.9838 36.0686 54.0536 36.0686 56.6068Z" fill="#5FF4EE"/>
</svg>
