<svg width="320" height="92" viewBox="0 0 320 92" fill="none" xmlns="http://www.w3.org/2000/svg">
<path d="M78.9969 69.5768C79.6175 69.22 80 68.5587 80 67.8429L80 24.1571C80 23.4413 79.6175 22.78 78.9969 22.4232L40.9969 0.57324C40.3797 0.218324 39.6203 0.218324 39.0031 0.57324L1.00306 22.4232C0.38254 22.78 6.60474e-06 23.4413 6.57346e-06 24.1571L4.66389e-06 67.8429C4.6326e-06 68.5587 0.382538 69.22 1.00306 69.5768L39.0031 91.4268C39.6203 91.7817 40.3797 91.7817 40.9969 91.4268L78.9969 69.5768Z" fill="#033FFF"/>
<path fill-rule="evenodd" clip-rule="evenodd" d="M73.9998 73.0251C73.9999 72.9842 74 72.9434 74 72.9025C74 67.8403 73.0754 63.1018 71.2031 58.6637C69.3539 54.2488 66.8113 50.3655 63.6214 47.037C60.4316 43.7085 56.687 41.0965 52.3876 39.1548C50.1247 38.1396 47.7647 37.3897 45.3145 36.9087V19.623C45.3145 17.0698 43.2447 15 40.6915 15C38.1383 15 36.0685 17.0698 36.0685 19.623V36.2655H31.4456V19.623C31.4456 17.0698 29.3758 15 26.8226 15C24.2694 15 22.1996 17.0698 22.1996 19.623V36.4992C16.9495 37.5727 13 42.2176 13 47.785V75.9L23.679 82.0404V45.6501H37.363C41.0383 45.6501 44.4361 46.3667 47.5566 47.7998C50.6771 49.2329 53.4047 51.1745 55.6931 53.6478C56.9031 54.9434 57.9709 56.3618 58.8966 57.8995C58.2644 57.8091 57.5904 57.7625 56.8719 57.7625C44.7442 57.7625 34.9128 71.0611 34.9128 83.1888C34.9128 85.2915 35.2603 87.2557 35.8768 89.0542L40.0031 91.4268C40.6203 91.7817 41.3797 91.7817 41.9969 91.4268L73.9998 73.0251ZM36.0686 56.6068C36.0686 59.16 33.9988 61.2297 31.4456 61.2297C28.8924 61.2297 26.8226 59.16 26.8226 56.6068C26.8226 54.0536 28.8924 51.9838 31.4456 51.9838C33.9988 51.9838 36.0686 54.0536 36.0686 56.6068Z" fill="#5FF4EE"/>
<g clip-path="url(#clip0_511_514)">
<path d="M93.8818 40.0073H91.1426V29.2847H94.1968C95.3833 29.2847 96.2256 29.3433 96.7236 29.4604C97.2119 29.5874 97.6196 29.7876 97.9468 30.061C98.3374 30.3882 98.6377 30.7935 98.8477 31.2769C99.0576 31.77 99.1626 32.3193 99.1626 32.9248C99.1626 33.5693 99.0576 34.1309 98.8477 34.6094C98.6621 35.0928 98.3618 35.4932 97.9468 35.8105C97.6489 36.0449 97.29 36.2134 96.8701 36.3159C96.4941 36.4185 95.8398 36.4697 94.9072 36.4697H94.4092H93.8818V40.0073ZM93.8818 34.1113H94.4385C95.1318 34.1113 95.6226 34.0112 95.9106 33.811C96.189 33.6255 96.3281 33.3008 96.3281 32.8369C96.3281 32.3926 96.1914 32.0752 95.918 31.8848C95.6494 31.6895 95.166 31.5918 94.4678 31.5918H93.8818V34.1113ZM103.484 36.001H106.392L105.3 32.4634C105.276 32.3999 105.229 32.2241 105.161 31.936C105.078 31.5991 105.002 31.2939 104.934 31.0205C104.866 31.2695 104.807 31.521 104.758 31.7749C104.68 32.019 104.614 32.2485 104.561 32.4634L103.484 36.001ZM99.3896 40.0073L103.088 29.2847H106.75L110.457 40.0073H107.549L107.007 38.0884H102.854L102.297 40.0073H99.3896ZM111.489 40.0073V29.2847H114.412V37.5024H118.044V40.0073H111.489ZM130.481 34.668C130.481 35.4443 130.342 36.1694 130.063 36.8433C129.785 37.5024 129.37 38.103 128.818 38.645C128.271 39.1724 127.646 39.5776 126.943 39.8608C126.206 40.1489 125.476 40.293 124.753 40.293C124.021 40.293 123.291 40.1489 122.563 39.8608C121.846 39.5728 121.226 39.1675 120.703 38.645C120.176 38.1421 119.761 37.5366 119.458 36.8286C119.165 36.1353 119.019 35.415 119.019 34.668C119.019 33.9209 119.165 33.2007 119.458 32.5073C119.761 31.7993 120.176 31.1938 120.703 30.6909C121.24 30.1538 121.86 29.7437 122.563 29.4604C123.247 29.1821 123.977 29.043 124.753 29.043C125.53 29.043 126.265 29.1846 126.958 29.4678C127.651 29.7461 128.269 30.1538 128.811 30.6909C129.358 31.228 129.775 31.8335 130.063 32.5073C130.342 33.1812 130.481 33.9014 130.481 34.668ZM124.753 37.8174C125.559 37.8174 126.233 37.5171 126.775 36.9165C127.043 36.6187 127.241 36.2842 127.368 35.9131C127.495 35.542 127.559 35.127 127.559 34.668C127.559 33.7744 127.292 33.0249 126.76 32.4194C126.218 31.8188 125.549 31.5186 124.753 31.5186C123.938 31.5186 123.267 31.8188 122.739 32.4194C122.212 33.02 121.948 33.7695 121.948 34.668C121.948 35.6006 122.207 36.355 122.725 36.9312C123.257 37.522 123.933 37.8174 124.753 37.8174ZM93.9771 51.001H96.8848L95.7935 47.4634C95.769 47.3999 95.7227 47.2241 95.6543 46.936C95.5713 46.5991 95.4956 46.2939 95.4272 46.0205C95.3589 46.2695 95.3003 46.521 95.2515 46.7749C95.1733 47.019 95.1074 47.2485 95.0537 47.4634L93.9771 51.001ZM89.8828 55.0073L93.5815 44.2847H97.2437L100.95 55.0073H98.042L97.5 53.0884H93.3472L92.7905 55.0073H89.8828ZM101.982 55.0073V44.2847H104.905V52.5024H108.538V55.0073H101.982ZM111.511 55.0073V46.8188H109.109V44.2847H116.836V46.8188H114.434V55.0073H111.511ZM129.28 49.668C129.28 50.4443 129.141 51.1694 128.862 51.8433C128.584 52.5024 128.169 53.103 127.617 53.645C127.07 54.1724 126.445 54.5776 125.742 54.8608C125.005 55.1489 124.275 55.293 123.552 55.293C122.82 55.293 122.09 55.1489 121.362 54.8608C120.645 54.5728 120.024 54.1675 119.502 53.645C118.975 53.1421 118.56 52.5366 118.257 51.8286C117.964 51.1353 117.817 50.415 117.817 49.668C117.817 48.9209 117.964 48.2007 118.257 47.5073C118.56 46.7993 118.975 46.1938 119.502 45.6909C120.039 45.1538 120.659 44.7437 121.362 44.4604C122.046 44.1821 122.776 44.043 123.552 44.043C124.329 44.043 125.063 44.1846 125.757 44.4678C126.45 44.7461 127.068 45.1538 127.61 45.6909C128.157 46.228 128.574 46.8335 128.862 47.5073C129.141 48.1812 129.28 48.9014 129.28 49.668ZM123.552 52.8174C124.358 52.8174 125.032 52.5171 125.574 51.9165C125.842 51.6187 126.04 51.2842 126.167 50.9131C126.294 50.542 126.357 50.127 126.357 49.668C126.357 48.7744 126.091 48.0249 125.559 47.4194C125.017 46.8188 124.348 46.5186 123.552 46.5186C122.737 46.5186 122.065 46.8188 121.538 47.4194C121.011 48.02 120.747 48.7695 120.747 49.668C120.747 50.6006 121.006 51.355 121.523 51.9312C122.056 52.522 122.732 52.8174 123.552 52.8174Z" fill="#5FF4EE"/>
<path d="M134.601 58.8135V31.5765H140.317C143.057 31.5765 145.221 31.847 146.809 32.3879C148.514 32.9172 150.06 33.8168 151.448 35.087C154.259 37.6507 155.664 41.0201 155.664 45.195C155.664 49.3817 154.2 52.7687 151.272 55.3559C149.802 56.6496 148.261 57.5492 146.65 58.0549C145.145 58.5606 143.01 58.8135 140.246 58.8135H134.601ZM138.712 54.9502H140.564C142.41 54.9502 143.945 54.7562 145.168 54.3681C146.391 53.9564 147.497 53.3037 148.484 52.41C150.507 50.5636 151.519 48.1586 151.519 45.195C151.519 42.2078 150.519 39.7852 148.52 37.9271C146.72 36.2689 144.068 35.4398 140.564 35.4398H138.712V54.9502ZM159.492 45.0715C159.492 41.2376 160.898 37.9447 163.708 35.1928C166.507 32.4409 169.871 31.0649 173.799 31.0649C177.68 31.0649 181.008 32.4526 183.783 35.2281C186.57 38.0035 187.964 41.3376 187.964 45.2303C187.964 49.1465 186.565 52.4688 183.766 55.1972C180.955 57.9373 177.562 59.3074 173.587 59.3074C170.071 59.3074 166.913 58.0902 164.114 55.6558C161.033 52.9627 159.492 49.4346 159.492 45.0715ZM163.638 45.1244C163.638 48.1351 164.649 50.6106 166.672 52.5511C168.683 54.4915 171.006 55.4618 173.64 55.4618C176.498 55.4618 178.909 54.4739 180.873 52.4982C182.837 50.4989 183.818 48.0645 183.818 45.195C183.818 42.2902 182.848 39.8558 180.908 37.8918C178.979 35.9161 176.592 34.9282 173.746 34.9282C170.911 34.9282 168.518 35.9161 166.566 37.8918C164.614 39.844 163.638 42.2549 163.638 45.1244ZM193.133 58.8135V29.7242L212.996 50.5048V31.5765H217.106V60.4717L197.243 39.7441V58.8135H193.133ZM227.761 42.4431L238.363 31.5765H243.849L231.536 43.9072L243.92 58.8135H238.416L228.608 46.6944L227.761 47.5412V58.8135H223.651V31.5765H227.761V42.4431ZM262.636 35.4398H251.717V41.9844H262.319V45.8477H251.717V54.9502H262.636V58.8135H247.607V31.5765H262.636V35.4398ZM273.538 47.0472L264.647 31.5765H269.375L275.602 42.4607L281.847 31.5765H286.575L277.649 47.0472V58.8135H273.538V47.0472Z" fill="#5FF4EE"/>
</g>
<defs>
<clipPath id="clip0_511_514">
<rect width="230" height="41" fill="white" transform="translate(90 25)"/>
</clipPath>
</defs>
</svg>
